<svg class="svg-hero" viewBox="0 0 2500 1440" fill="none" xmlns="http://www.w3.org/2000/svg">
<g id="bg-hero" clip-path="url(#clip0_602_232)">
<g id="smoke-2" filter="url(#filter0_f_602_232)">
<path class="smoke-2" d="M983.196 943.122C750.302 700.721 511.866 465.907 293.231 658.621C49.8822 873.12 484.02 1308.2 810.911 1308.2C1179.74 1354.25 1988.13 967.379 1841.75 905.298C1695.37 843.218 1216.09 1185.52 983.196 943.122Z" fill="#15AED4" fill-opacity="0.05"/>
</g>
<g id="smoke-1" filter="url(#filter1_f_602_232)">
<path class="smoke-1" d="M1516.8 496.878C1749.7 739.28 1988.13 974.093 2206.77 781.379C2450.12 566.88 2015.98 131.796 1689.09 131.796C1320.26 85.7499 511.872 472.622 658.253 534.702C804.634 596.783 1283.91 254.477 1516.8 496.878Z" fill="#15AED4" fill-opacity="0.05"/>
</g>
<path class="hero-line3" id="hero-line3" d="M2436.82 519.836C2246.91 647.571 1838.44 1000.41 1111.68 741.621C384.917 482.831 127.177 814.08 12.6341 931.019" stroke="#15AED4" stroke-width="1.5"/>
<path class="hero-line2" id="hero-line2" d="M-22.4408 675.087C194.057 600.857 854.158 487.064 1314.95 803.831C1775.74 1120.6 2279.74 716.598 2419.74 622.598" stroke="#15AED4" stroke-width="1.5"/>
<path class="hero-line1" id="hero-line1" d="M63 264.355C291.333 248.688 821.5 147.355 1321.5 734.855C1821.5 1322.35 2210.33 1164.35 2368 1120.35" stroke="#15AED4" stroke-width="1.5"/>
</g>
<defs>
<filter id="filter0_f_602_232" x="22.2222" y="387.622" width="2037.04" height="1124.38" filterUnits="userSpaceOnUse" color-interpolation-filters="sRGB">
<feFlood flood-opacity="0" result="BackgroundImageFix"/>
<feBlend mode="normal" in="SourceGraphic" in2="BackgroundImageFix" result="shape"/>
<feGaussianBlur stdDeviation="100" result="effect1_foregroundBlur_602_232"/>
</filter>
<filter id="filter1_f_602_232" x="440.733" y="-71.9998" width="2037.04" height="1124.38" filterUnits="userSpaceOnUse" color-interpolation-filters="sRGB">
<feFlood flood-opacity="0" result="BackgroundImageFix"/>
<feBlend mode="normal" in="SourceGraphic" in2="BackgroundImageFix" result="shape"/>
<feGaussianBlur stdDeviation="100" result="effect1_foregroundBlur_602_232"/>
</filter>
<clipPath id="clip0_602_232">
<rect width="2500" height="1440" fill="white"/>
</clipPath>
</defs>
</svg>
